<?xml version="1.0" encoding="UTF-8"?>
<svg id="Capa_2" data-name="Capa 2" xmlns="http://www.w3.org/2000/svg" viewBox="0 0 344.33 388.58">
  <g id="Capa_1-2" data-name="Capa 1">
    <g>
      <g>
        <g id="_Repetición_radial_" data-name="&amp;lt;Repetición radial&amp;gt;">
          <path d="M174.28,179.03c-28.81,41.4,32.83,78.47.14,115.79,1.74-3.95,5.18-9,6.09-13.82,9.49-33.82-34.82-72.53-6.23-101.97h0Z"/>
        </g>
        <g id="_Repetición_radial_-2" data-name="&amp;lt;Repetición radial&amp;gt;">
          <path d="M172.3,178.98c-31.35,39.51,27.84,80.38-7.13,115.57,1.99-3.83,5.73-8.66,6.94-13.41,11.59-33.16-30.2-74.57.19-102.16h0Z"/>
        </g>
        <g id="_Repetición_radial_-3" data-name="&amp;lt;Repetición radial&amp;gt;">
          <path d="M170.32,178.81c-33.77,37.46,22.73,81.97-14.38,114.89,2.23-3.7,6.26-8.28,7.77-12.95,13.65-32.36-25.46-76.32,6.6-101.94h0Z"/>
        </g>
        <g id="_Repetición_radial_-4" data-name="&amp;lt;Repetición radial&amp;gt;">
          <path d="M168.35,178.52c-36.05,35.27,17.54,83.24-21.56,113.76,2.45-3.55,6.77-7.87,8.57-12.43,15.66-31.44-20.62-77.77,12.99-101.33h0Z"/>
        </g>
        <g id="_Repetición_radial_-5" data-name="&amp;lt;Repetición radial&amp;gt;">
          <path d="M166.41,178.1c-38.2,32.93,12.28,84.17-28.66,112.18,2.67-3.39,7.25-7.43,9.33-11.87,17.6-30.4-15.69-78.91,19.33-100.31h0Z"/>
        </g>
        <g id="_Repetición_radial_-6" data-name="&amp;lt;Repetición radial&amp;gt;">
          <path d="M164.49,177.57c-40.19,30.47,6.97,84.78-35.65,110.16,2.88-3.21,7.7-6.96,10.06-11.26,19.47-29.23-10.71-79.74,25.59-98.9h0Z"/>
        </g>
        <g id="_Repetición_radial_-7" data-name="&amp;lt;Repetición radial&amp;gt;">
          <path d="M162.61,176.91c-42.02,27.89,1.64,85.05-42.5,107.71,3.07-3.03,8.12-6.46,10.75-10.61,21.27-27.95-5.68-80.25,31.75-97.1h0Z"/>
        </g>
        <g id="_Repetición_radial_-8" data-name="&amp;lt;Repetición radial&amp;gt;">
          <path d="M160.79,176.14c-43.69,25.19-3.71,84.98-49.17,104.83,3.26-2.83,8.51-5.94,11.39-9.91,22.98-26.56-.63-80.45,37.78-94.91h0Z"/>
        </g>
        <g id="_Repetición_radial_-9" data-name="&amp;lt;Repetición radial&amp;gt;">
          <path d="M159.01,175.25c-45.19,22.4-9.04,84.58-55.66,101.53,3.43-2.62,8.87-5.39,11.99-9.18,24.6-25.06,4.42-80.33,43.67-92.35h0Z"/>
        </g>
        <g id="_Repetición_radial_-10" data-name="&amp;lt;Repetición radial&amp;gt;">
          <path d="M157.28,174.26c-46.51,19.52-14.33,83.85-61.93,97.84,3.59-2.4,9.19-4.83,12.54-8.41,26.13-23.47,9.46-79.9,49.38-89.43h0Z"/>
        </g>
        <g id="_Repetición_radial_-11" data-name="&amp;lt;Repetición radial&amp;gt;">
          <path d="M155.64,173.16c-47.64,16.56-19.57,82.78-67.95,93.75,3.73-2.17,9.48-4.24,13.05-7.6,27.55-21.78,14.46-79.15,54.9-86.15h0Z"/>
        </g>
        <g id="_Repetición_radial_-12" data-name="&amp;lt;Repetición radial&amp;gt;">
          <path d="M154.06,171.96c-48.59,13.54-24.73,81.39-73.7,89.3,3.86-1.93,9.72-3.64,13.5-6.77,28.87-20.01,19.4-78.08,60.2-82.54h0Z"/>
        </g>
        <g id="_Repetición_radial_-13" data-name="&amp;lt;Repetición radial&amp;gt;">
          <path d="M152.55,170.66c-49.34,10.46-29.79,79.68-79.16,84.5,3.97-1.68,9.93-3.02,13.9-5.91,30.07-18.16,24.26-76.71,65.26-78.59h0Z"/>
        </g>
        <g id="_Repetición_radial_-14" data-name="&amp;lt;Repetición radial&amp;gt;">
          <path d="M151.14,169.27c-49.9,7.34-34.73,77.65-84.31,79.36,4.07-1.43,10.1-2.39,14.24-5.02,31.15-16.23,29.03-75.03,70.07-74.34h0Z"/>
        </g>
        <g id="_Repetición_radial_-15" data-name="&amp;lt;Repetición radial&amp;gt;">
          <path d="M149.8,167.79c-50.26,4.19-39.54,75.32-89.13,73.91,4.15-1.17,10.23-1.75,14.53-4.12,32.1-14.25,33.68-73.06,74.6-69.79h0Z"/>
        </g>
        <g id="_Repetición_radial_-16" data-name="&amp;lt;Repetición radial&amp;gt;">
          <path d="M148.57,166.23c-50.43,1.03-44.19,72.68-93.59,68.17,4.22-.91,10.32-1.1,14.76-3.2,32.94-12.2,38.21-70.8,78.83-64.97h0Z"/>
        </g>
        <g id="_Repetición_radial_-17" data-name="&amp;lt;Repetición radial&amp;gt;">
          <path d="M147.44,164.6c-50.39-2.14-48.67,69.77-97.69,62.16,4.27-.64,10.37-.45,14.93-2.26,33.64-10.11,42.58-68.27,82.76-59.89h0Z"/>
        </g>
        <g id="_Repetición_radial_-18" data-name="&amp;lt;Repetición radial&amp;gt;">
          <path d="M146.42,162.89c-50.16-5.3-52.95,66.57-101.4,55.9,4.3-.37,10.38.2,15.04-1.32,34.2-7.98,46.78-65.46,86.36-54.58h0Z"/>
        </g>
        <g id="_Repetición_radial_-19" data-name="&amp;lt;Repetición radial&amp;gt;">
          <path d="M145.5,161.13c-49.73-8.44-57.03,63.12-104.71,49.42,4.31-.1,10.35.85,15.1-.38,34.64-5.81,50.8-62.39,89.61-49.05h0Z"/>
        </g>
        <g id="_Repetición_radial_-20" data-name="&amp;lt;Repetición radial&amp;gt;">
          <path d="M144.69,159.32c-49.1-11.54-60.88,59.41-107.6,42.75,4.31.17,10.27,1.5,15.09.57,34.94-3.63,54.61-59.08,92.52-43.32h0Z"/>
        </g>
        <g id="_Repetición_radial_-21" data-name="&amp;lt;Repetición radial&amp;gt;">
          <path d="M144,157.46c-48.28-14.6-64.49,55.47-110.08,35.91,4.29.44,10.16,2.14,15.02,1.52,35.09-1.43,58.22-55.53,95.05-37.43h0Z"/>
        </g>
        <g id="_Repetición_radial_-22" data-name="&amp;lt;Repetición radial&amp;gt;">
          <path d="M143.43,155.56c-47.26-17.61-67.84,51.31-112.11,28.93,4.26.71,10,2.77,14.9,2.46,35.11.78,61.59-51.77,97.22-31.39h0Z"/>
        </g>
        <g id="_Repetición_radial_-23" data-name="&amp;lt;Repetición radial&amp;gt;">
          <path d="M142.98,153.62c-46.06-20.54-70.93,46.95-113.71,21.83,4.2.97,9.81,3.4,14.71,3.39,35,2.98,64.72-47.8,98.99-25.22h0Z"/>
        </g>
        <g id="_Repetición_radial_-24" data-name="&amp;lt;Repetición radial&amp;gt;">
          <path d="M142.65,151.66c-44.68-23.39-73.74,42.41-114.86,14.65,4.13,1.24,9.58,4.01,14.47,4.31,34.74,5.17,67.59-43.64,100.38-18.96h0Z"/>
        </g>
        <g id="_Repetición_radial_-25" data-name="&amp;lt;Repetición radial&amp;gt;">
          <path d="M142.45,149.69c-43.13-26.15-76.26,37.69-115.55,7.41,4.05,1.49,9.31,4.6,14.17,5.21,34.35,7.34,70.2-39.31,101.38-12.62h0Z"/>
        </g>
        <g id="_Repetición_radial_-26" data-name="&amp;lt;Repetición radial&amp;gt;">
          <path d="M142.37,147.7c-41.4-28.81-78.47,32.83-115.79.14,3.95,1.74,9,5.18,13.82,6.09,33.82,9.49,72.53-34.82,101.97-6.23h0Z"/>
        </g>
        <g id="_Repetición_radial_-27" data-name="&amp;lt;Repetición radial&amp;gt;">
          <path d="M142.41,145.72c-39.51-31.35-80.38,27.84-115.57-7.13,3.83,1.99,8.66,5.73,13.41,6.94,33.16,11.59,74.57-30.2,102.16.19h0Z"/>
        </g>
        <g id="_Repetición_radial_-28" data-name="&amp;lt;Repetición radial&amp;gt;">
          <path d="M142.57,143.74c-37.46-33.77-81.97,22.73-114.89-14.38,3.7,2.23,8.28,6.26,12.95,7.77,32.36,13.65,76.32-25.46,101.94,6.6h0Z"/>
        </g>
        <g id="_Repetición_radial_-29" data-name="&amp;lt;Repetición radial&amp;gt;">
          <path d="M142.87,141.77c-35.27-36.05-83.24,17.54-113.76-21.56,3.55,2.45,7.87,6.77,12.43,8.57,31.44,15.66,77.77-20.62,101.33,12.99h0Z"/>
        </g>
        <g id="_Repetición_radial_-30" data-name="&amp;lt;Repetición radial&amp;gt;">
          <path d="M143.28,139.83c-32.93-38.2-84.17,12.28-112.18-28.66,3.39,2.67,7.43,7.25,11.87,9.33,30.4,17.6,78.91-15.69,100.31,19.33h0Z"/>
        </g>
        <g id="_Repetición_radial_-31" data-name="&amp;lt;Repetición radial&amp;gt;">
          <path d="M143.82,137.91c-30.47-40.19-84.78,6.97-110.16-35.65,3.21,2.88,6.96,7.7,11.26,10.06,29.23,19.47,79.74-10.71,98.9,25.59h0Z"/>
        </g>
        <g id="_Repetición_radial_-32" data-name="&amp;lt;Repetición radial&amp;gt;">
          <path d="M144.47,136.03c-27.89-42.02-85.05,1.64-107.71-42.5,3.03,3.07,6.46,8.12,10.61,10.75,27.95,21.27,80.25-5.68,97.1,31.75h0Z"/>
        </g>
        <g id="_Repetición_radial_-33" data-name="&amp;lt;Repetición radial&amp;gt;">
          <path d="M145.25,134.21c-25.19-43.69-84.98-3.71-104.83-49.17,2.83,3.26,5.94,8.51,9.91,11.39,26.56,22.98,80.45-.63,94.91,37.78h0Z"/>
        </g>
        <g id="_Repetición_radial_-34" data-name="&amp;lt;Repetición radial&amp;gt;">
          <path d="M146.13,132.43c-22.4-45.19-84.58-9.04-101.53-55.66,2.62,3.43,5.39,8.87,9.18,11.99,25.06,24.6,80.33,4.42,92.35,43.67h0Z"/>
        </g>
        <g id="_Repetición_radial_-35" data-name="&amp;lt;Repetición radial&amp;gt;">
          <path d="M147.12,130.71c-19.52-46.51-83.85-14.33-97.84-61.93,2.4,3.59,4.83,9.19,8.41,12.54,23.47,26.13,79.9,9.46,89.43,49.38h0Z"/>
        </g>
        <g id="_Repetición_radial_-36" data-name="&amp;lt;Repetición radial&amp;gt;">
          <path d="M148.23,129.06c-16.56-47.64-82.78-19.57-93.75-67.95,2.17,3.73,4.24,9.48,7.6,13.05,21.78,27.55,79.15,14.46,86.15,54.9h0Z"/>
        </g>
        <g id="_Repetición_radial_-37" data-name="&amp;lt;Repetición radial&amp;gt;">
          <path d="M149.43,127.48c-13.54-48.59-81.39-24.73-89.3-73.7,1.93,3.86,3.64,9.72,6.77,13.5,20.01,28.87,78.08,19.4,82.54,60.2h0Z"/>
        </g>
        <g id="_Repetición_radial_-38" data-name="&amp;lt;Repetición radial&amp;gt;">
          <path d="M150.73,125.97c-10.46-49.34-79.68-29.79-84.5-79.16,1.68,3.97,3.02,9.93,5.91,13.9,18.16,30.07,76.71,24.26,78.59,65.26h0Z"/>
        </g>
        <g id="_Repetición_radial_-39" data-name="&amp;lt;Repetición radial&amp;gt;">
          <path d="M152.12,124.56c-7.34-49.9-77.65-34.73-79.36-84.31,1.43,4.07,2.39,10.1,5.02,14.24,16.23,31.15,75.03,29.03,74.34,70.07h0Z"/>
        </g>
        <g id="_Repetición_radial_-40" data-name="&amp;lt;Repetición radial&amp;gt;">
          <path d="M153.6,123.23c-4.19-50.26-75.32-39.54-73.91-89.13,1.17,4.15,1.75,10.23,4.12,14.53,14.25,32.1,73.06,33.68,69.79,74.6h0Z"/>
        </g>
        <g id="_Repetición_radial_-41" data-name="&amp;lt;Repetición radial&amp;gt;">
          <path d="M155.16,121.99c-1.03-50.43-72.68-44.19-68.17-93.59.91,4.22,1.1,10.32,3.2,14.76,12.2,32.94,70.8,38.21,64.97,78.83h0Z"/>
        </g>
        <g id="_Repetición_radial_-42" data-name="&amp;lt;Repetición radial&amp;gt;">
          <path d="M156.79,120.87c2.14-50.39-69.77-48.67-62.16-97.69.64,4.27.45,10.37,2.26,14.93,10.11,33.64,68.27,42.58,59.89,82.76h0Z"/>
        </g>
        <g id="_Repetición_radial_-43" data-name="&amp;lt;Repetición radial&amp;gt;">
          <path d="M158.49,119.84c5.3-50.16-66.57-52.95-55.9-101.4.37,4.3-.2,10.38,1.32,15.04,7.98,34.2,65.46,46.78,54.58,86.36h0Z"/>
        </g>
        <g id="_Repetición_radial_-44" data-name="&amp;lt;Repetición radial&amp;gt;">
          <path d="M160.25,118.92c8.44-49.73-63.12-57.03-49.42-104.71.1,4.31-.85,10.35.38,15.1,5.81,34.64,62.39,50.8,49.05,89.61h0Z"/>
        </g>
        <g id="_Repetición_radial_-45" data-name="&amp;lt;Repetición radial&amp;gt;">
          <path d="M162.07,118.11c11.54-49.1-59.41-60.88-42.75-107.6-.17,4.31-1.5,10.27-.57,15.09,3.63,34.94,59.08,54.61,43.32,92.52h0Z"/>
        </g>
        <g id="_Repetición_radial_-46" data-name="&amp;lt;Repetición radial&amp;gt;">
          <path d="M163.93,117.42c14.6-48.28-55.47-64.49-35.91-110.08-.44,4.29-2.14,10.16-1.52,15.02,1.43,35.09,55.53,58.22,37.43,95.05h0Z"/>
        </g>
        <g id="_Repetición_radial_-47" data-name="&amp;lt;Repetición radial&amp;gt;">
          <path d="M165.83,116.85c17.61-47.26-51.31-67.84-28.93-112.11-.71,4.26-2.77,10-2.46,14.9-.78,35.11,51.77,61.59,31.39,97.22h0Z"/>
        </g>
        <g id="_Repetición_radial_-48" data-name="&amp;lt;Repetición radial&amp;gt;">
          <path d="M167.77,116.4c20.54-46.06-46.95-70.93-21.83-113.71-.97,4.2-3.4,9.81-3.39,14.71-2.98,35,47.8,64.72,25.22,98.99h0Z"/>
        </g>
        <g id="_Repetición_radial_-49" data-name="&amp;lt;Repetición radial&amp;gt;">
          <path d="M169.73,116.07c23.39-44.68-42.41-73.74-14.65-114.86-1.24,4.13-4.01,9.58-4.31,14.47-5.17,34.74,43.64,67.59,18.96,100.38h0Z"/>
        </g>
        <g id="_Repetición_radial_-50" data-name="&amp;lt;Repetición radial&amp;gt;">
          <path d="M171.7,115.87c26.15-43.13-37.69-76.26-7.41-115.55-1.49,4.05-4.6,9.31-5.21,14.17-7.34,34.35,39.31,70.2,12.62,101.38h0Z"/>
        </g>
        <g id="_Repetición_radial_-51" data-name="&amp;lt;Repetición radial&amp;gt;">
          <path d="M173.69,115.79c28.81-41.4-32.83-78.47-.14-115.79-1.74,3.95-5.18,9-6.09,13.82-9.49,33.82,34.82,72.53,6.23,101.97h0Z"/>
        </g>
        <g id="_Repetición_radial_-52" data-name="&amp;lt;Repetición radial&amp;gt;">
          <path d="M175.67,115.83c31.35-39.51-27.84-80.38,7.13-115.57-1.99,3.83-5.73,8.66-6.94,13.41-11.59,33.16,30.2,74.57-.19,102.16h0Z"/>
        </g>
        <g id="_Repetición_radial_-53" data-name="&amp;lt;Repetición radial&amp;gt;">
          <path d="M177.65,116c33.77-37.46-22.73-81.97,14.38-114.89-2.23,3.7-6.26,8.28-7.77,12.95-13.65,32.36,25.46,76.32-6.6,101.94h0Z"/>
        </g>
        <g id="_Repetición_radial_-54" data-name="&amp;lt;Repetición radial&amp;gt;">
          <path d="M179.62,116.29c36.05-35.27-17.54-83.24,21.56-113.76-2.45,3.55-6.77,7.87-8.57,12.43-15.66,31.44,20.62,77.77-12.99,101.33h0Z"/>
        </g>
        <g id="_Repetición_radial_-55" data-name="&amp;lt;Repetición radial&amp;gt;">
          <path d="M181.56,116.71c38.2-32.93-12.28-84.17,28.66-112.18-2.67,3.39-7.25,7.43-9.33,11.87-17.6,30.4,15.69,78.91-19.33,100.31h0Z"/>
        </g>
        <g id="_Repetición_radial_-56" data-name="&amp;lt;Repetición radial&amp;gt;">
          <path d="M183.47,117.24c40.19-30.47-6.97-84.78,35.65-110.16-2.88,3.21-7.7,6.96-10.06,11.26-19.47,29.23,10.71,79.74-25.59,98.9h0Z"/>
        </g>
        <g id="_Repetición_radial_-57" data-name="&amp;lt;Repetición radial&amp;gt;">
          <path d="M185.35,117.89c42.02-27.89-1.64-85.05,42.5-107.71-3.07,3.03-8.12,6.46-10.75,10.61-21.27,27.95,5.68,80.25-31.75,97.1h0Z"/>
        </g>
        <g id="_Repetición_radial_-58" data-name="&amp;lt;Repetición radial&amp;gt;">
          <path d="M187.18,118.67c43.69-25.19,3.71-84.98,49.17-104.83-3.26,2.83-8.51,5.94-11.39,9.91-22.98,26.56.63,80.45-37.78,94.91h0Z"/>
        </g>
        <g id="_Repetición_radial_-59" data-name="&amp;lt;Repetición radial&amp;gt;">
          <path d="M188.96,119.55c45.19-22.4,9.04-84.58,55.66-101.53-3.43,2.62-8.87,5.39-11.99,9.18-24.6,25.06-4.42,80.33-43.67,92.35h0Z"/>
        </g>
        <g id="_Repetición_radial_-60" data-name="&amp;lt;Repetición radial&amp;gt;">
          <path d="M190.68,120.55c46.51-19.52,14.33-83.85,61.93-97.84-3.59,2.4-9.19,4.83-12.54,8.41-26.13,23.47-9.46,79.9-49.38,89.43h0Z"/>
        </g>
        <g id="_Repetición_radial_-61" data-name="&amp;lt;Repetición radial&amp;gt;">
          <path d="M192.33,121.65c47.64-16.56,19.57-82.78,67.95-93.75-3.73,2.17-9.48,4.24-13.05,7.6-27.55,21.78-14.46,79.15-54.9,86.15h0Z"/>
        </g>
        <g id="_Repetición_radial_-62" data-name="&amp;lt;Repetición radial&amp;gt;">
          <path d="M193.91,122.85c48.59-13.54,24.73-81.39,73.7-89.3-3.86,1.93-9.72,3.64-13.5,6.77-28.87,20.01-19.4,78.08-60.2,82.54h0Z"/>
        </g>
        <g id="_Repetición_radial_-63" data-name="&amp;lt;Repetición radial&amp;gt;">
          <path d="M195.41,124.15c49.34-10.46,29.79-79.68,79.16-84.5-3.97,1.68-9.93,3.02-13.9,5.91-30.07,18.16-24.26,76.71-65.26,78.59h0Z"/>
        </g>
        <g id="_Repetición_radial_-64" data-name="&amp;lt;Repetición radial&amp;gt;">
          <path d="M196.83,125.54c49.9-7.34,34.73-77.65,84.31-79.36-4.07,1.43-10.1,2.39-14.24,5.02-31.15,16.23-29.03,75.03-70.07,74.34h0Z"/>
        </g>
        <g id="_Repetición_radial_-65" data-name="&amp;lt;Repetición radial&amp;gt;">
          <path d="M198.16,127.02c50.26-4.19,39.54-75.32,89.13-73.91-4.15,1.17-10.23,1.75-14.53,4.12-32.1,14.25-33.68,73.06-74.6,69.79h0Z"/>
        </g>
        <g id="_Repetición_radial_-66" data-name="&amp;lt;Repetición radial&amp;gt;">
          <path d="M199.39,128.58c50.43-1.03,44.19-72.68,93.59-68.17-4.22.91-10.32,1.1-14.76,3.2-32.94,12.2-38.21,70.8-78.83,64.97h0Z"/>
        </g>
        <g id="_Repetición_radial_-67" data-name="&amp;lt;Repetición radial&amp;gt;">
          <path d="M200.52,130.21c50.39,2.14,48.67-69.77,97.69-62.16-4.27.64-10.37.45-14.93,2.26-33.64,10.11-42.58,68.27-82.76,59.89h0Z"/>
        </g>
        <g id="_Repetición_radial_-68" data-name="&amp;lt;Repetición radial&amp;gt;">
          <path d="M201.55,131.91c50.16,5.3,52.95-66.57,101.4-55.9-4.3.37-10.38-.2-15.04,1.32-34.2,7.98-46.78,65.46-86.36,54.58h0Z"/>
        </g>
        <g id="_Repetición_radial_-69" data-name="&amp;lt;Repetición radial&amp;gt;">
          <path d="M202.46,133.67c49.73,8.44,57.03-63.12,104.71-49.42-4.31.1-10.35-.85-15.1.38-34.64,5.81-50.8,62.39-89.61,49.05h0Z"/>
        </g>
        <g id="_Repetición_radial_-70" data-name="&amp;lt;Repetición radial&amp;gt;">
          <path d="M203.27,135.49c49.1,11.54,60.88-59.41,107.6-42.75-4.31-.17-10.27-1.5-15.09-.57-34.94,3.63-54.61,59.08-92.52,43.32h0Z"/>
        </g>
        <g id="_Repetición_radial_-71" data-name="&amp;lt;Repetición radial&amp;gt;">
          <path d="M203.96,137.35c48.28,14.6,64.49-55.47,110.08-35.91-4.29-.44-10.16-2.14-15.02-1.52-35.09,1.43-58.22,55.53-95.05,37.43h0Z"/>
        </g>
        <g id="_Repetición_radial_-72" data-name="&amp;lt;Repetición radial&amp;gt;">
          <path d="M204.53,139.26c47.26,17.61,67.84-51.31,112.11-28.93-4.26-.71-10-2.77-14.9-2.46-35.11-.78-61.59,51.77-97.22,31.39h0Z"/>
        </g>
        <g id="_Repetición_radial_-73" data-name="&amp;lt;Repetición radial&amp;gt;">
          <path d="M204.99,141.19c46.06,20.54,70.93-46.95,113.71-21.83-4.2-.97-9.81-3.4-14.71-3.39-35-2.98-64.72,47.8-98.99,25.22h0Z"/>
        </g>
        <g id="_Repetición_radial_-74" data-name="&amp;lt;Repetición radial&amp;gt;">
          <path d="M205.32,143.15c44.68,23.39,73.74-42.41,114.86-14.65-4.13-1.24-9.58-4.01-14.47-4.31-34.74-5.17-67.59,43.64-100.38,18.96h0Z"/>
        </g>
        <g id="_Repetición_radial_-75" data-name="&amp;lt;Repetición radial&amp;gt;">
          <path d="M205.52,145.12c43.13,26.15,76.26-37.69,115.55-7.41-4.05-1.49-9.31-4.6-14.17-5.21-34.35-7.34-70.2,39.31-101.38,12.62h0Z"/>
        </g>
        <g id="_Repetición_radial_-76" data-name="&amp;lt;Repetición radial&amp;gt;">
          <path d="M205.6,147.11c41.4,28.81,78.47-32.83,115.79-.14-3.95-1.74-9-5.18-13.82-6.09-33.82-9.49-72.53,34.82-101.97,6.23h0Z"/>
        </g>
        <g id="_Repetición_radial_-77" data-name="&amp;lt;Repetición radial&amp;gt;">
          <path d="M205.56,149.09c39.51,31.35,80.38-27.84,115.57,7.13-3.83-1.99-8.66-5.73-13.41-6.94-33.16-11.59-74.57,30.2-102.16-.19h0Z"/>
        </g>
        <g id="_Repetición_radial_-78" data-name="&amp;lt;Repetición radial&amp;gt;">
          <path d="M205.39,151.07c37.46,33.77,81.97-22.73,114.89,14.38-3.7-2.23-8.28-6.26-12.95-7.77-32.36-13.65-76.32,25.46-101.94-6.6h0Z"/>
        </g>
        <g id="_Repetición_radial_-79" data-name="&amp;lt;Repetición radial&amp;gt;">
          <path d="M205.1,153.04c35.27,36.05,83.24-17.54,113.76,21.56-3.55-2.45-7.87-6.77-12.43-8.57-31.44-15.66-77.77,20.62-101.33-12.99h0Z"/>
        </g>
        <g id="_Repetición_radial_-80" data-name="&amp;lt;Repetición radial&amp;gt;">
          <path d="M204.68,154.98c32.93,38.2,84.17-12.28,112.18,28.66-3.39-2.67-7.43-7.25-11.87-9.33-30.4-17.6-78.91,15.69-100.31-19.33h0Z"/>
        </g>
        <g id="_Repetición_radial_-81" data-name="&amp;lt;Repetición radial&amp;gt;">
          <path d="M204.14,156.9c30.47,40.19,84.78-6.97,110.16,35.65-3.21-2.88-6.96-7.7-11.26-10.06-29.23-19.47-79.74,10.71-98.9-25.59h0Z"/>
        </g>
        <g id="_Repetición_radial_-82" data-name="&amp;lt;Repetición radial&amp;gt;">
          <path d="M203.49,158.77c27.89,42.02,85.05-1.64,107.71,42.5-3.03-3.07-6.46-8.12-10.61-10.75-27.95-21.27-80.25,5.68-97.1-31.75h0Z"/>
        </g>
        <g id="_Repetición_radial_-83" data-name="&amp;lt;Repetición radial&amp;gt;">
          <path d="M202.72,160.6c25.19,43.69,84.98,3.71,104.83,49.17-2.83-3.26-5.94-8.51-9.91-11.39-26.56-22.98-80.45.63-94.91-37.78h0Z"/>
        </g>
        <g id="_Repetición_radial_-84" data-name="&amp;lt;Repetición radial&amp;gt;">
          <path d="M201.83,162.38c22.4,45.19,84.58,9.04,101.53,55.66-2.62-3.43-5.39-8.87-9.18-11.99-25.06-24.6-80.33-4.42-92.35-43.67h0Z"/>
        </g>
        <g id="_Repetición_radial_-85" data-name="&amp;lt;Repetición radial&amp;gt;">
          <path d="M200.84,164.1c19.52,46.51,83.85,14.33,97.84,61.93-2.4-3.59-4.83-9.19-8.41-12.54-23.47-26.13-79.9-9.46-89.43-49.38h0Z"/>
        </g>
        <g id="_Repetición_radial_-86" data-name="&amp;lt;Repetición radial&amp;gt;">
          <path d="M199.74,165.75c16.56,47.64,82.78,19.57,93.75,67.95-2.17-3.73-4.24-9.48-7.6-13.05-21.78-27.55-79.15-14.46-86.15-54.9h0Z"/>
        </g>
        <g id="_Repetición_radial_-87" data-name="&amp;lt;Repetición radial&amp;gt;">
          <path d="M198.53,167.33c13.54,48.59,81.39,24.73,89.3,73.7-1.93-3.86-3.64-9.72-6.77-13.5-20.01-28.87-78.08-19.4-82.54-60.2h0Z"/>
        </g>
        <g id="_Repetición_radial_-88" data-name="&amp;lt;Repetición radial&amp;gt;">
          <path d="M197.23,168.83c10.46,49.34,79.68,29.79,84.5,79.16-1.68-3.97-3.02-9.93-5.91-13.9-18.16-30.07-76.71-24.26-78.59-65.26h0Z"/>
        </g>
        <g id="_Repetición_radial_-89" data-name="&amp;lt;Repetición radial&amp;gt;">
          <path d="M195.85,170.25c7.34,49.9,77.65,34.73,79.36,84.31-1.43-4.07-2.39-10.1-5.02-14.24-16.23-31.15-75.03-29.03-74.34-70.07h0Z"/>
        </g>
        <g id="_Repetición_radial_-90" data-name="&amp;lt;Repetición radial&amp;gt;">
          <path d="M194.37,171.58c4.19,50.26,75.32,39.54,73.91,89.13-1.17-4.15-1.75-10.23-4.12-14.53-14.25-32.1-73.06-33.68-69.79-74.6h0Z"/>
        </g>
        <g id="_Repetición_radial_-91" data-name="&amp;lt;Repetición radial&amp;gt;">
          <path d="M192.8,172.81c1.03,50.43,72.68,44.19,68.17,93.59-.91-4.22-1.1-10.32-3.2-14.76-12.2-32.94-70.8-38.21-64.97-78.83h0Z"/>
        </g>
        <g id="_Repetición_radial_-92" data-name="&amp;lt;Repetición radial&amp;gt;">
          <path d="M191.17,173.95c-2.14,50.39,69.77,48.67,62.16,97.69-.64-4.27-.45-10.37-2.26-14.93-10.11-33.64-68.27-42.58-59.89-82.76h0Z"/>
        </g>
        <g id="_Repetición_radial_-93" data-name="&amp;lt;Repetición radial&amp;gt;">
          <path d="M189.47,174.97c-5.3,50.16,66.57,52.95,55.9,101.4-.37-4.3.2-10.38-1.32-15.04-7.98-34.2-65.46-46.78-54.58-86.36h0Z"/>
        </g>
        <g id="_Repetición_radial_-94" data-name="&amp;lt;Repetición radial&amp;gt;">
          <path d="M187.71,175.89c-8.44,49.73,63.12,57.03,49.42,104.71-.1-4.31.85-10.35-.38-15.1-5.81-34.64-62.39-50.8-49.05-89.61h0Z"/>
        </g>
        <g id="_Repetición_radial_-95" data-name="&amp;lt;Repetición radial&amp;gt;">
          <path d="M185.9,176.7c-11.54,49.1,59.41,60.88,42.75,107.6.17-4.31,1.5-10.27.57-15.09-3.63-34.94-59.08-54.61-43.32-92.52h0Z"/>
        </g>
        <g id="_Repetición_radial_-96" data-name="&amp;lt;Repetición radial&amp;gt;">
          <path d="M184.04,177.39c-14.6,48.28,55.47,64.49,35.91,110.08.44-4.29,2.14-10.16,1.52-15.02-1.43-35.09-55.53-58.22-37.43-95.05h0Z"/>
        </g>
        <g id="_Repetición_radial_-97" data-name="&amp;lt;Repetición radial&amp;gt;">
          <path d="M182.14,177.96c-17.61,47.26,51.31,67.84,28.93,112.11.71-4.26,2.77-10,2.46-14.9.78-35.11-51.77-61.59-31.39-97.22h0Z"/>
        </g>
        <g id="_Repetición_radial_-98" data-name="&amp;lt;Repetición radial&amp;gt;">
          <path d="M180.2,178.41c-20.54,46.06,46.95,70.93,21.83,113.71.97-4.2,3.4-9.81,3.39-14.71,2.98-35-47.8-64.72-25.22-98.99h0Z"/>
        </g>
        <g id="_Repetición_radial_-99" data-name="&amp;lt;Repetición radial&amp;gt;">
          <path d="M178.24,178.74c-23.39,44.68,42.41,73.74,14.65,114.86,1.24-4.13,4.01-9.58,4.31-14.47,5.17-34.74-43.64-67.59-18.96-100.38h0Z"/>
        </g>
        <g id="_Repetición_radial_-100" data-name="&amp;lt;Repetición radial&amp;gt;">
          <path d="M176.27,178.94c-26.15,43.13,37.69,76.26,7.41,115.55,1.49-4.05,4.6-9.31,5.21-14.17,7.34-34.35-39.31-70.2-12.62-101.38h0Z"/>
        </g>
      </g>
      <g>
        <path d="M27.08,347.54l-2.32-6.46c-.26,3.73-2.01,6.51-4.53,8.42-4.67,3.52-9.79,3.16-15.23,3.16H0v-.46c2.33,0,3.35-1.83,4.57-5.22l11.1-30.97c-.76-1.31-2-2.55-3.65-2.99v-.46h9.67l12.42,34.42c1.16,3.22,2.7,5.22,5.12,5.22v.45h-13.64v-.45c2.22,0,2.5-1.87,1.5-4.65ZM22.72,335.39l-6.18-17.2-9.33,26.11c-2.29,6.41,4.52,8.39,10,5.71,4.22-2.06,7.64-6.9,5.52-14.62Z"/>
        <path d="M54.65,351.08c6.82,0,7.7-7.26,6.85-11.77h.52l1.92,13.34h-25.99v-.45c2.09,0,3.23-2.11,3.23-5.31v-28.56c0-3.2-1.05-5.31-3.23-5.31v-.46h13.17v.46c-2.18,0-3.23,2.11-3.23,5.31v32.76h6.76Z"/>
        <path d="M104.14,363.98h-.43c-7.03-7.81-26.72-1.52-27.95-5.06-2.33-6.68,18.77-2.5,18.55-21.13-.14-11.54-7.52-25.97-17.17-23.39-13.19,3.54-5.67,32.8,5.86,36.73v.36c-22.83,5.26-27.02-38.94-.99-39.26,11.96-.15,18.07,9.68,18.3,19.73.57,23.97-25.53,22.13-23.45,26.37,1.6,3.26,25.17-14.38,27.28,5.65ZM90.61,332.84c-6.08,0-8.12,3.57-8.12,9.19h-.43c0-5.62-2.04-9.19-8.12-9.19v-.46c6.08,0,8.12-3.57,8.12-9.19h.43c0,5.62,2.04,9.19,8.12,9.19v.46Z"/>
        <path d="M132.04,341.86v-23.53c0-3.2-1.05-5.31-3.23-5.31v-.46h8.11v.46c-2.18,0-3.23,2.11-3.23,5.31v23.6c0,6.76-5.08,11.06-14.02,11.06-7.15,0-13.61-3.95-13.61-11.72v-22.93c0-3.2-1.05-5.31-3.23-5.31v-.45h13.17v.45c-2.18,0-3.23,2.11-3.23,5.31v23.16c0,13.2,19.28,12.03,19.28.37Z"/>
        <path d="M149.17,346.89c0,3.2,1.14,5.31,3.23,5.31v.45h-13.16v-.45c2.09,0,3.23-2.11,3.23-5.31v-28.56c0-3.2-1.14-5.31-3.23-5.31v-.45h13.16v.45c-2.09,0-3.23,2.11-3.23,5.31v28.56Z"/>
        <path d="M190.11,312.56h7.91v.46c-2.18,0-3.26,2.43-2.88,5.31l3.74,28.58s.74,5.29,4.24,5.29v.46h-14.48v-.46c2.16,0,3.21-2.74,2.81-5.93l-3.19-24.31-11.52,30.69h-2.45l-4.54-11.58c.46,5.97-1.96,11.58-8.75,11.58h-7.57v-.46c2.17,0,3.44-2.13,4-5.31l3.74-28.58c.28-2.12.27-5.29-2.47-5.29v-.45h6.99l12.47,31.82,11.94-31.82h0ZM166.82,333.62l-4.55-11.66-3.18,24.24c-1.11,8.51,14.5,7.16,7.73-12.57Z"/>
        <path d="M213.99,346.89c0,3.2,1.14,5.31,3.23,5.31v.45h-13.16v-.45c2.09,0,3.23-2.11,3.23-5.31v-28.56c0-3.2-1.14-5.31-3.23-5.31v-.45h13.16v.45c-2.09,0-3.23,2.11-3.23,5.31v28.56Z"/>
        <path d="M221.45,352.65h-.57l.85-8.83c.31-3.22.54-8.38,4.88-8.38,3.57,0,7.1,5.49,10.6,8.95,2.57,2.54,5.34,3.7,5.34-.31.01-11.31-21.41-9.44-21.41-22.42,0-6.02,5.61-9.36,11.43-9.43,9.23-.11,11.17,3.84,14.68.33h.57l-.02,13.34h-.41c-1.63-5.81-7.25-12.09-14.31-12.09-2.59,0-5.45,1.51-5.48,4.85,0,10.61,21.94,9.54,21.94,22.49,0,7.53-7.17,11.89-14.31,11.82-3.89-.04-7.41-1.72-10.48-1.78-1.16-.02-2.18.34-3.29,1.45ZM235.88,351.35c2.31.01,4.33-1.04,5.53-2.89-5.56-.96-10.47-11.75-14.8-11.75-5.42,0-.2,14.59,9.27,14.64Z"/>
        <path d="M258.29,314.13c-5.7,0-6.69,9.28-6.69,11.77h-.55v-13.34h28.92v13.34h-.55c0-2.6-.99-11.77-6.69-11.77h-3.88v32.76c0,3.2,1.14,5.31,3.23,5.31v.45h-13.16v-.45c2.09,0,3.23-2.11,3.23-5.31v-32.76h-3.88Z"/>
        <path d="M303.62,347.54l-2.32-6.46c-.26,3.73-2.01,6.51-4.53,8.42-4.67,3.52-9.79,3.16-15.23,3.16h-5v-.46c2.33,0,3.35-1.83,4.57-5.22l11.1-30.97c-.76-1.31-2-2.55-3.65-2.99v-.46h9.67l12.42,34.42c1.16,3.22,2.7,5.22,5.12,5.22v.45h-13.64v-.45c2.22,0,2.5-1.87,1.5-4.65ZM299.25,335.39l-6.18-17.2-9.33,26.11c-2.29,6.41,4.52,8.39,10,5.71,4.22-2.06,7.64-6.9,5.52-14.62Z"/>
        <path d="M316.25,352.65h-.57l.85-8.83c.31-3.22.54-8.38,4.88-8.38,3.57,0,7.1,5.49,10.6,8.95,2.57,2.54,5.34,3.7,5.34-.31.01-11.31-21.41-9.44-21.41-22.42,0-6.02,5.61-9.36,11.43-9.43,9.23-.11,11.17,3.84,14.68.33h.57l-.02,13.34h-.41c-1.63-5.81-7.25-12.09-14.31-12.09-2.59,0-5.45,1.51-5.48,4.85,0,10.61,21.94,9.54,21.94,22.49,0,7.53-7.17,11.89-14.31,11.82-3.89-.04-7.41-1.72-10.48-1.78-1.16-.02-2.18.34-3.29,1.45ZM330.69,351.35c2.31.01,4.33-1.04,5.53-2.89-5.56-.96-10.47-11.75-14.8-11.75-5.42,0-.2,14.59,9.27,14.64Z"/>
      </g>
      <g>
        <g>
          <path d="M119.83,376.74c.73.74,1.1,1.82,1.1,3.22,0,1.66-.43,2.94-1.28,3.83s-2.08,1.34-3.67,1.34c-1,0-2.17-.05-3.51-.13l.14-2.74-.14-6.58,4.2-.06c1.38,0,2.43.37,3.16,1.12ZM117.55,382.44c.23-.36.35-.95.35-1.78,0-.7-.05-1.25-.14-1.66-.1-.4-.25-.69-.46-.87-.21-.18-.51-.27-.88-.27s-.72.02-1.08.06l-.1,4.05.03.89c.58.08.99.12,1.25.12.45,0,.79-.18,1.03-.54Z"/>
          <path d="M133.06,382.69l.16.2-.17,2.1h-6.57l.14-2.74-.14-6.58h6.68l.16.2-.19,2.1-2.29-.09h-1.49l-.03,1.31h1.43l1.5-.04.16.2-.17,2.1-1.67-.04h-1.3l-.02.55.03.81h1.38l2.39-.09Z"/>
          <path d="M144.53,382.84l-.17,2.16h-5.55l.14-2.74-.14-6.58h2.94l-.16,6.29.03.66h2.75l.16.2Z"/>
        </g>
        <g>
          <path d="M168.59,371.3l-.79,3.64-.3.16c-.51-.35-1.09-.62-1.74-.81-.65-.19-1.28-.29-1.9-.29-1.31,0-2.29.41-2.92,1.23-.63.82-.95,2.12-.95,3.89,0,3.83,1.36,5.75,4.08,5.75.6,0,1.24-.08,1.92-.25.68-.17,1.29-.39,1.84-.68l.38.22-.35,3.64c-1.28.51-2.66.77-4.14.77-2.76,0-4.84-.77-6.27-2.3-1.43-1.53-2.14-3.75-2.14-6.65s.76-5.21,2.27-6.82c1.52-1.6,3.66-2.41,6.43-2.41,1.68,0,3.2.3,4.57.91Z"/>
          <path d="M193.61,388.31h-4.52l-.47-2.55-.25-1.01-3.18-.05-2.74.08-.22.71-.49,2.82h-4.35l5.69-17.66h5.34l5.17,17.66ZM187.53,381.41l-1.73-6.71h-.27l-2.05,6.71,2.03.06,2.03-.06Z"/>
          <path d="M208.22,374.12l-.08,4.11h2.22l3.06-.08.25.33-.27,3.28-3.37-.08h-1.94l-.03.96.16,5.67h-4.46l.25-5.23-.25-12.43h11.06l.25.33-.3,3.29-4.27-.17-2.27.03Z"/>
          <path d="M236.47,384.69l.25.33-.27,3.29h-11.66l.25-5.23-.25-12.43h11.83l.25.33-.3,3.29-4.3-.17-3.01.03-.05,3.53h2.87l2.87-.08.25.33-.27,3.29-3.15-.08h-2.66l-.03,1.53.06,2.19,2.9.03,4.44-.16ZM233.76,363.75l1.1,2.6-.14.35c-1.79.66-3.84,1.34-6.16,2.05l-.38-.11-.69-1.81c2.03-1.01,3.98-2.06,5.86-3.18l.41.08Z"/>
        </g>
      </g>
    </g>
  </g>
</svg>